<svg xmlns="http://www.w3.org/2000/svg" width="127.770mm" height="30.000mm" viewBox="0 0 127.770 30.000" role="img" aria-label="STUDIO OM"><title>STUDIO OM — primary</title><desc>Generated by the ADOS Brand System from brand 1.0.0. Module 5.0 mm.</desc><path fill-rule="evenodd" fill="#1a1a18" d="M0 0h30.0v30.0h-30.0zM3.0 3.0v24.0h24.0v-24.0z"/><g transform="translate(40.000 20.000)"><g fill="#1a1a18"><g transform="scale(0.006711 -0.006711)"><path d="M665 -25Q414 -25 265.0 92.5Q116 210 106 414H335Q345 292 440.0 233.5Q535 175 664 175Q806 175 899.0 241.0Q992 307 992 415Q992 512 910.5 559.5Q829 607 709 639L535 687Q352 736 249.5 832.0Q147 928 147 1081Q147 1210 216.5 1306.5Q286 1403 405.5 1456.5Q525 1510 675 1510Q828 1510 944.5 1456.5Q1061 1403 1127.5 1309.5Q1194 1216 1197 1098H975Q964 1200 880.5 1256.0Q797 1312 670 1312Q535 1312 455.0 1250.5Q375 1189 375 1094Q375 1023 418.0 979.5Q461 936 523.5 910.5Q586 885 643 870L788 832Q859 814 934.5 783.5Q1010 753 1074.0 704.5Q1138 656 1177.5 584.5Q1217 513 1217 412Q1217 286 1152.0 187.0Q1087 88 963.5 31.5Q840 -25 665 -25Z" transform="translate(0.00 0)"/><path d="M90 1294V1490H1247V1294H784V0H555V1294Z" transform="translate(1486.84 0)"/><path d="M759 -23Q579 -23 445.5 45.5Q312 114 238.5 235.0Q165 356 165 512V1490H393V531Q393 380 491.5 282.0Q590 184 759 184Q927 184 1024.5 282.0Q1122 380 1122 531V1490H1351V512Q1351 356 1277.0 235.0Q1203 114 1070.0 45.5Q937 -23 759 -23Z" transform="translate(2987.68 0)"/><path d="M650 0H165V1490H664Q884 1490 1041.0 1400.5Q1198 1311 1282.0 1145.0Q1366 979 1366 747Q1366 514 1281.5 347.0Q1197 180 1036.5 90.0Q876 0 650 0ZM393 200H637Q890 200 1016.0 341.5Q1142 483 1142 747Q1142 1010 1017.5 1150.0Q893 1290 649 1290H393Z" transform="translate(4667.52 0)"/><path d="M393 1490V0H165V1490Z" transform="translate(6309.36 0)"/><path d="M786 -20Q593 -20 440.5 72.0Q288 164 200.5 335.0Q113 506 113 744Q113 983 200.5 1154.5Q288 1326 440.5 1418.0Q593 1510 786 1510Q979 1510 1130.5 1418.0Q1282 1326 1369.5 1154.5Q1457 983 1457 744Q1457 506 1369.5 334.5Q1282 163 1130.5 71.5Q979 -20 786 -20ZM786 188Q913 188 1013.5 252.0Q1114 316 1172.5 440.0Q1231 564 1231 744Q1231 925 1172.5 1049.5Q1114 1174 1013.5 1238.0Q913 1302 786 1302Q658 1302 557.0 1238.0Q456 1174 397.5 1049.5Q339 925 339 744Q339 564 397.5 440.0Q456 316 557.0 252.0Q658 188 786 188Z" transform="translate(7031.20 0)"/><path d="M786 -20Q593 -20 440.5 72.0Q288 164 200.5 335.0Q113 506 113 744Q113 983 200.5 1154.5Q288 1326 440.5 1418.0Q593 1510 786 1510Q979 1510 1130.5 1418.0Q1282 1326 1369.5 1154.5Q1457 983 1457 744Q1457 506 1369.5 334.5Q1282 163 1130.5 71.5Q979 -20 786 -20ZM786 188Q913 188 1013.5 252.0Q1114 316 1172.5 440.0Q1231 564 1231 744Q1231 925 1172.5 1049.5Q1114 1174 1013.5 1238.0Q913 1302 786 1302Q658 1302 557.0 1238.0Q456 1174 397.5 1049.5Q339 925 339 744Q339 564 397.5 440.0Q456 316 557.0 252.0Q658 188 786 188Z" transform="translate(9474.88 0)"/><path d="M165 0V1490H501L826 635Q841 595 860.0 531.5Q879 468 899.0 395.0Q919 322 936 254Q954 320 974.0 393.0Q994 466 1013.0 530.0Q1032 594 1047 635L1367 1490H1705V0H1478V802Q1478 884 1480.5 1013.5Q1483 1143 1486 1268Q1460 1177 1432.0 1088.0Q1404 999 1379.0 923.5Q1354 848 1337 802L1032 0H837L528 802Q502 869 461.5 997.0Q421 1125 378 1263Q380 1185 382.0 1100.0Q384 1015 385.5 937.0Q387 859 387 802V0Z" transform="translate(11208.72 0)"/></g></g></g></svg>